PathFileType	3	(X/Y/Z)	E:\ViconData\BIOM9541 2025\Week 7\Wed1100\Hanif high squat 7-5 Squat 01.trc
DataRate	CameraRate	NumFrames	NumMarkers	Units	OrigDataRate	OrigDataStartFrame	OrigNumFrames
200.0	200.0	20	19	mm	200.0	1098	1756	
Frame#	Time	C7			CLAV			RBAK			LASI			RASI			LPSI			RPSI			LTHI			LKNE			LTIB			LANK			LHEE			LTOE			RTHI			RKNE			RTIB			RANK			RHEE			RTOE			
		X1	Y1	Z1	X2	Y2	Z2	X3	Y3	Z3	X4	Y4	Z4	X5	Y5	Z5	X6	Y6	Z6	X7	Y7	Z7	X8	Y8	Z8	X9	Y9	Z9	X10	Y10	Z10	X11	Y11	Z11	X12	Y12	Z12	X13	Y13	Z13	X14	Y14	Z14	X15	Y15	Z15	X16	Y16	Z16	X17	Y17	Z17	X18	Y18	Z18	X19	Y19	Z19	
1098	5.485	323.9949	1316.0543	-1224.8591	173.7245	1252.3384	-1216.475	338.60715	1232.1172	-1374.8638	184.98477	880.80322	-1090.1627	186.5554	890.1343	-1351.3076	356.439	941.3962	-1174.2783	358.5275	938.6589	-1248.3528	230.27078	562.57959	-998.56537	239.14738	422.94397	-996.84125	283.58731	222.25993	-966.04285	306.53009	64.228142	-975.71118	326.21396	49.507679	-1035.2158	160.79295	38.040195	-946.19421	245.44038	734.6839	-1418.3984	249.99013	421.12552	-1431.2179	269.74356	333.5513	-1448.316	302.59827	73.550148	-1429.7827	321.96185	49.396259	-1364.0674	162.00523	40.429985	-1464.9987	
1099	5.49	324.01755	1316.1897	-1224.6176	173.664	1252.7115	-1216.2545	338.60956	1232.239	-1374.6931	184.31201	880.8479	-1090.1277	186.1122	890.4008	-1351.2158	355.7901	941.6232	-1173.751	357.8614	938.6119	-1248.0178	230.97864	562.41266	-998.93695	240.49454	422.91705	-997.39667	284.26123	222.27597	-966.31293	306.60062	64.213669	-975.71674	326.21857	49.561954	-1035.2437	160.82796	38.030865	-946.16913	245.22038	734.72205	-1418.1024	251.05301	421.20145	-1430.4465	270.61899	333.69858	-1447.7245	302.67172	73.668777	-1429.6644	321.93127	49.369122	-1363.9052	161.97513	40.508629	-1465.0116	
1100	5.495	324.04312	1316.241	-1224.4436	173.59122	1253.0201	-1216.15	338.57028	1232.2251	-1374.4603	183.58057	880.95898	-1089.9343	185.6541	890.5907	-1351.1394	355.2089	941.6306	-1173.4274	357.3417	938.6529	-1247.7504	231.60733	562.30139	-999.21521	241.77048	422.74878	-997.97394	284.90936	222.31796	-966.57721	306.70712	64.167999	-975.76233	326.23907	49.508362	-1035.2723	160.83966	37.992161	-946.15906	244.99728	734.69257	-1417.8878	252.06047	421.26468	-1429.7323	271.44867	333.75613	-1447.2242	302.76105	73.6521	-1429.584	321.88455	49.35606	-1363.793	161.97256	40.462299	-1465.0184	
1101	5.5	324.06635	1316.3325	-1224.2488	173.4747	1253.3064	-1216.0211	338.54584	1232.2405	-1374.235	182.91168	880.99298	-1089.8213	185.2065	890.6697	-1351.026	354.635	941.6558	-1173.1399	356.9053	938.8274	-1247.5314	232.25191	562.22949	-999.43738	242.99316	422.80048	-998.47797	285.52469	222.31194	-966.84668	306.8692	64.08548	-975.8894	326.28662	49.363892	-1035.3074	160.83736	37.957035	-946.15918	244.752	734.61877	-1417.6793	252.98962	421.20959	-1429.0653	272.26163	333.81433	-1446.6956	302.87006	73.586617	-1429.488	321.936	49.339725	-1363.8717	161.98729	40.385025	-1465.0244	
1102	5.505	324.06491	1316.424	-1224.0126	173.40387	1253.6188	-1215.8663	338.50385	1232.23	-1373.9683	182.33781	881.07666	-1089.6699	184.7625	890.7	-1350.9087	354.116	941.7208	-1173.152	356.2972	938.7968	-1247.1801	232.97263	562.15143	-999.69635	244.1368	422.78671	-998.95135	286.13135	222.40161	-967.09863	306.99899	64.048111	-975.94916	326.27338	49.288612	-1035.3446	160.84148	37.946026	-946.1283	244.47762	734.57874	-1417.4761	253.91632	421.21158	-1428.4307	273.02991	333.88486	-1446.2344	302.93317	73.56617	-1429.3738	321.89243	49.293034	-1363.8359	161.97751	40.362774	-1465.0347	
1103	5.51	324.04263	1316.5051	-1223.7732	173.32668	1253.891	-1215.5996	338.42554	1232.2057	-1373.7441	181.70694	881.22369	-1089.4814	184.2597	891.3508	-1351.1747	353.553	941.8054	-1172.9236	355.8424	938.9342	-1246.9945	233.62386	562.04071	-999.92798	245.34326	422.7811	-999.4798	286.7934	222.40752	-967.40314	307.03775	64.039795	-975.96368	326.21939	49.296902	-1035.3734	160.76735	37.953854	-946.03937	244.10852	734.62701	-1417.2467	254.65247	421.34006	-1427.7991	273.71964	333.97433	-1445.7651	302.97	73.61042	-1429.2512	321.8757	49.25946	-1363.7362	161.95175	40.416893	-1465.0651	
1104	5.515	324.04065	1316.5562	-1223.5303	173.19691	1254.1753	-1215.4271	337.94992	1231.734	-1372.8618	181.14952	881.25732	-1089.3597	183.8033	891.141	-1350.7454	353.0034	941.7908	-1172.4808	355.3474	938.9494	-1246.7842	234.28957	561.94641	-1000.1397	246.42023	422.74094	-999.91364	287.3085	222.40698	-967.64197	307.07275	64.071312	-975.99567	326.16486	49.325958	-1035.4182	160.75336	37.962177	-945.99579	243.81195	734.66785	-1417.0504	255.46527	421.48578	-1427.1641	274.42435	334.10428	-1445.2999	303.03357	73.706055	-1429.1084	321.88968	49.273586	-1363.6124	161.92297	40.468502	-1465.0782	
1105	5.52	324.02698	1316.6101	-1223.2803	173.12903	1254.4147	-1215.3083	337.89642	1231.7222	-1372.6298	180.58847	881.22217	-1089.2661	183.3328	891.219	-1350.592	352.5106	941.8495	-1172.1617	354.8809	939.0196	-1246.5638	234.95346	561.87061	-1000.317	247.45674	422.76483	-1000.3859	287.89307	222.43149	-967.90485	307.15622	64.074646	-976.06995	326.13141	49.339706	-1035.4863	160.7475	38.000698	-945.96362	243.5323	734.72327	-1416.887	256.23355	421.51935	-1426.5854	275.14084	334.23746	-1444.8988	303.14737	73.766678	-1428.9944	321.86874	49.278419	-1363.5079	161.935	40.451313	-1465.0319	
1106	5.525	324.03876	1316.6398	-1223.0614	173.03053	1254.6025	-1215.1884	338.24347	1232.15	-1372.9437	180.02774	881.35175	-1089.0917	182.8924	891.2138	-1350.4177	352.0615	941.8642	-1172.0159	354.4178	939.0414	-1246.3658	235.49413	561.81891	-1000.4496	248.45497	422.76596	-1000.8619	288.42224	222.45992	-968.1687	307.25641	64.057198	-976.17657	326.17395	49.2813	-1035.5679	160.74826	38.021099	-945.98755	243.2348	734.70825	-1416.7509	256.97922	421.56155	-1426.0188	275.8064	334.29858	-1444.4773	303.27158	73.764854	-1428.9121	321.91046	49.26017	-1363.5682	161.95657	40.434738	-1465.0612	
1107	5.53	324.03751	1316.6183	-1222.8839	172.93556	1254.7256	-1214.9972	338.22034	1232.073	-1372.72	179.53033	881.56708	-1088.8755	182.4505	891.2393	-1350.2328	351.6122	941.8646	-1171.9573	353.9755	939.077	-1246.2083	236.08838	561.6886	-1000.7408	249.39433	422.90179	-1001.2029	288.90353	222.54028	-968.39551	307.34012	64.065872	-976.24658	326.19986	49.17178	-1035.6412	160.79025	38.032566	-946.0379	242.92267	734.75879	-1416.6357	257.70264	421.58392	-1425.5038	276.43179	334.33536	-1444.0686	303.36148	73.734673	-1428.8392	321.91193	49.229233	-1363.5742	161.97379	40.34845	-1465.0677	
1108	5.535	323.99561	1316.609	-1222.6833	172.89357	1254.8977	-1214.8311	338.16812	1232.0631	-1372.5072	179.04478	881.6084	-1088.6963	181.9504	891.3978	-1350.0327	351.1558	941.8668	-1171.8726	353.5808	939.2386	-1246.0492	236.58499	561.6416	-1000.9404	250.34103	422.90115	-1001.6219	289.35385	222.58823	-968.63348	307.38733	64.105423	-976.27441	326.20047	49.123741	-1035.7166	160.78888	38.028004	-946.03424	242.60037	734.82129	-1416.4672	258.33783	421.58301	-1424.9993	277.04239	334.38147	-1443.6389	303.4017	73.733376	-1428.7549	321.88333	49.195419	-1363.5261	161.93918	40.33939	-1465.0692	
1109	5.54	323.9444	1316.6611	-1222.4774	172.79657	1255.0104	-1214.7058	337.76547	1231.5364	-1371.7542	178.55453	881.59857	-1088.4813	181.4536	891.5132	-1349.8359	350.6526	941.9136	-1171.4816	353.0091	939.2131	-1245.782	237.08211	561.52979	-1001.1524	251.16855	422.80228	-1002.0421	289.8194	222.57448	-968.8985	307.40494	64.082367	-976.30255	326.13351	49.166779	-1035.7836	160.75644	38.007454	-946.00787	242.25397	734.96765	-1416.2859	258.89926	421.74844	-1424.558	277.54803	334.52866	-1443.2249	303.41541	73.819817	-1428.688	321.81772	49.286221	-1363.3866	161.91399	40.386059	-1465.1013	
1110	5.545	323.8912	1316.7085	-1222.2778	172.7346	1255.1368	-1214.4004	337.67667	1231.5356	-1371.5326	178.07323	881.66266	-1088.2445	180.9884	891.61	-1349.6132	350.2086	942.0368	-1171.199	352.4853	939.0729	-1245.6115	237.57515	561.39612	-1001.4107	251.99393	422.80551	-1002.4167	290.23215	222.58762	-969.11438	307.41672	64.093468	-976.34351	326.09698	49.237473	-1035.8831	160.72679	38.008766	-945.94757	241.87506	735.07306	-1416.0824	259.42548	421.90424	-1424.0813	278.02756	334.7103	-1442.8552	303.42462	73.931404	-1428.6218	321.72076	49.320389	-1363.1617	161.88422	40.446903	-1465.0775	
1111	5.55	323.85153	1316.7078	-1222.1208	172.59604	1255.2722	-1214.2487	337.60181	1231.4595	-1371.3376	177.64224	881.82703	-1087.9963	180.4862	891.7559	-1349.3654	349.763	942.0912	-1171.0446	352.0214	939.0882	-1245.4583	237.96878	561.33362	-1001.6009	252.79277	422.86203	-1002.7298	290.62994	222.63495	-969.29553	307.44876	64.097137	-976.38879	326.05685	49.251476	-1035.9521	160.69571	38.006115	-945.9054	241.52179	735.14386	-1415.9436	259.95654	422.02478	-1423.6108	278.47205	334.78345	-1442.463	303.46436	73.985634	-1428.5297	321.70767	49.339306	-1363.1271	161.85942	40.480446	-1465.1156	
1112	5.555	323.8187	1316.7039	-1221.9271	172.43661	1255.4108	-1214.063	337.90628	1231.9086	-1371.6917	177.22928	882.01697	-1087.7279	180.0178	891.8599	-1349.0862	349.3684	942.136	-1171.0481	351.6576	939.2885	-1245.3566	238.34789	561.29602	-1001.7943	253.59439	422.91183	-1003.066	290.98123	222.74939	-969.39819	307.50821	64.112885	-976.45935	326.06741	49.168385	-1036.0078	160.65164	38.03009	-945.93634	241.17805	735.19922	-1415.7764	260.43909	422.07587	-1423.1309	278.89142	334.8028	-1442.124	303.53723	73.960655	-1428.4534	321.68671	49.28886	-1363.1179	161.88878	40.399212	-1465.1012	
1113	5.56	323.75723	1316.6744	-1221.7531	172.31853	1255.5062	-1213.8801	337.85007	1231.8418	-1371.4996	176.81178	882.14893	-1087.4592	179.5432	891.9463	-1348.8188	348.9936	942.1278	-1171.1573	351.3069	939.4414	-1245.2759	238.68996	561.27759	-1001.9702	254.32745	423.02814	-1003.3394	291.41077	222.79831	-969.59558	307.89655	64.478508	-976.341	326.13239	49.125408	-1036.0472	160.66229	38.018585	-945.94464	240.83168	735.1731	-1415.5491	260.91556	422.02515	-1422.7156	279.34039	334.82214	-1441.7858	303.60321	73.949272	-1428.3668	321.72144	49.284466	-1363.1478	161.86771	40.350483	-1465.103	
1114	5.565	323.71423	1316.6692	-1221.5997	172.17607	1255.5924	-1213.6873	337.46127	1231.4114	-1370.7554	176.40053	882.2265	-1087.2041	179.0668	892.0594	-1348.5814	348.619	942.1373	-1170.9611	350.8201	939.5169	-1245.0779	239.073	561.22339	-1002.1441	255.05775	422.90366	-1003.6827	291.78519	222.82753	-969.7937	307.97073	64.513397	-976.38586	326.08798	49.106594	-1036.1189	160.65427	38.025902	-945.92676	240.4774	735.26208	-1415.2969	261.34253	422.11426	-1422.2892	279.70505	334.93176	-1441.4622	303.60928	73.977577	-1428.2964	321.70972	49.291679	-1363.1185	161.84329	40.33012	-1465.0856	
1115	5.57	323.63843	1316.7106	-1221.4247	172.10039	1255.6443	-1213.478	337.7532	1231.7922	-1371.1794	176.06525	882.2796	-1087.0031	178.5512	892.2331	-1348.2782	348.2033	942.1937	-1170.6719	350.389	939.568	-1244.9359	239.45694	561.16473	-1002.3561	255.75375	422.93024	-1003.9834	292.16678	222.80264	-970.01196	307.70221	64.174286	-976.76343	325.9852	49.171379	-1036.2125	160.64447	38.032207	-945.8916	240.08754	735.34723	-1415.0665	261.70236	422.24338	-1421.9209	280.05878	335.04181	-1441.1653	303.61136	74.06295	-1428.2211	321.65256	49.280922	-1362.9722	161.80573	40.367115	-1465.0677	
1116	5.575	323.55618	1316.7179	-1221.2319	171.9951	1255.6947	-1213.3046	337.6217	1231.7672	-1370.978	175.70743	882.30737	-1086.7917	178.0971	892.3178	-1348.0435	347.8208	942.2471	-1170.462	349.9755	939.5947	-1244.8077	239.79189	561.12408	-1002.5112	256.46518	422.97986	-1004.2833	292.51935	222.79272	-970.22681	307.72192	64.192444	-976.83057	325.94019	49.21207	-1036.2844	160.6543	38.013531	-945.87549	239.71359	735.43878	-1414.894	262.10843	422.33148	-1421.5433	280.42636	335.14075	-1440.8733	303.61737	74.147034	-1428.1445	321.64499	49.352348	-1362.8669	161.79243	40.376324	-1465.0461	
1117	5.58	323.49368	1316.7437	-1221.1233	171.55269	1256.0341	-1213.8883	337.54822	1231.7522	-1370.8247	175.31477	882.40857	-1086.5271	177.6439	892.3909	-1347.7827	347.4504	942.3111	-1170.3723	349.6195	939.6899	-1244.7303	240.12398	561.13568	-1002.7251	257.11832	423.05606	-1004.5615	292.86011	222.91626	-970.38928	307.76575	64.232834	-976.9071	325.89911	49.221687	-1036.3914	160.62975	38.035728	-945.86804	239.33423	735.46307	-1414.6833	262.48956	422.37897	-1421.1808	280.76004	335.19034	-1440.5645	303.67474	74.195587	-1428.0576	321.57794	49.34726	-1362.7797	161.79726	40.356716	-1465.056	
